<svg width="19" height="20" viewBox="0 0 19 20" fill="none" xmlns="http://www.w3.org/2000/svg">
<path d="M17.8359 0.250002L1.16406 0.25C0.889118 0.252126 0.626014 0.36666 0.431594 0.568857C0.237173 0.771055 0.127044 1.04468 0.125 1.33062L0.124998 18.6694C0.127043 18.9553 0.237171 19.2289 0.431592 19.4311C0.626013 19.6333 0.889116 19.7479 1.16406 19.75L10.1406 19.75L10.1406 12.21L7.70312 12.21L7.70312 9.26063L10.1406 9.26063L10.1406 7.09125C10.1406 4.5725 11.6172 3.19938 13.7891 3.19938C14.5156 3.19938 15.2422 3.19938 15.9688 3.31313L15.9688 5.9375L14.4766 5.9375C13.2969 5.9375 13.0703 6.5225 13.0703 7.37563L13.0703 9.2525L15.8828 9.2525L15.5156 12.2019L13.0703 12.2019L13.0703 19.75L17.8359 19.75C18.1109 19.7479 18.374 19.6333 18.5684 19.4311C18.7628 19.2289 18.873 18.9553 18.875 18.6694L18.875 1.33063C18.873 1.04468 18.7628 0.771056 18.5684 0.568859C18.374 0.366661 18.1109 0.252128 17.8359 0.250002Z" fill="#625B54"/>
</svg>
