<svg width="19" height="20" viewBox="0 0 19 20" fill="none" xmlns="http://www.w3.org/2000/svg">
<path d="M18.3985 8.22873L9.66409 8.22873L9.66409 11.9906L14.6953 11.9906C14.2266 14.3875 12.2656 15.7606 9.66409 15.7606C8.19504 15.7606 6.78616 15.1537 5.74738 14.0734C4.7086 12.993 4.12503 11.5278 4.12503 9.99997C4.12503 8.47216 4.7086 7.00692 5.74738 5.9266C6.78616 4.84627 8.19504 4.23935 9.66409 4.23935C10.9229 4.24119 12.1425 4.69462 13.1172 5.5231L15.8438 2.68748C14.7054 1.64341 13.3404 0.902384 11.8659 0.528082C10.3914 0.15378 8.85156 0.157392 7.37871 0.538607C5.90585 0.919822 4.54402 1.66724 3.41022 2.71664C2.27642 3.76604 1.40456 5.08604 0.869555 6.56322C0.334551 8.04039 0.152402 9.63058 0.338758 11.1971C0.525114 12.7637 1.0744 14.2597 1.93943 15.5568C2.80445 16.8538 3.95934 17.9131 5.30487 18.6434C6.65039 19.3738 8.14631 19.7536 9.66409 19.75C14.3516 19.75 18.6094 16.2075 18.6094 9.99998C18.6048 9.40309 18.534 8.80875 18.3985 8.22873Z" fill="#625B54"/>
</svg>
