<svg width="26" height="26" viewBox="0 0 26 26" fill="none" xmlns="http://www.w3.org/2000/svg">
<path d="M13 18.0066C13.9902 18.0066 14.9582 17.713 15.7816 17.1628C16.6049 16.6127 17.2466 15.8308 17.6255 14.9159C18.0045 14.0011 18.1036 12.9944 17.9104 12.0232C17.7173 11.052 17.2404 10.1599 16.5402 9.45975C15.8401 8.75956 14.948 8.28273 13.9768 8.08954C13.0056 7.89636 11.9989 7.99551 11.0841 8.37445C10.1692 8.75339 9.3873 9.3951 8.83717 10.2184C8.28703 11.0418 7.9934 12.0098 7.9934 13C7.9934 14.3278 8.52088 15.6013 9.45981 16.5402C10.3987 17.4791 11.6722 18.0066 13 18.0066ZM13 9.74997C13.6428 9.74997 14.2712 9.94058 14.8056 10.2977C15.3401 10.6548 15.7566 11.1624 16.0026 11.7562C16.2486 12.3501 16.313 13.0036 16.1876 13.634C16.0622 14.2644 15.7526 14.8435 15.2981 15.2981C14.8436 15.7526 14.2645 16.0621 13.6341 16.1875C13.0036 16.3129 12.3502 16.2486 11.7563 16.0026C11.1624 15.7566 10.6549 15.34 10.2977 14.8056C9.94063 14.2711 9.75003 13.6428 9.75003 13C9.75003 12.138 10.0924 11.3114 10.7019 10.7019C11.3114 10.0924 12.1381 9.74997 13 9.74997Z" fill="#625B54"/>
<path d="M13 20.9934C10.3968 20.9934 10.088 20.9836 9.06019 20.9365C8.442 20.9292 7.82968 20.8157 7.24994 20.6009C6.82934 20.4387 6.44736 20.1902 6.12859 19.8714C5.80982 19.5526 5.56131 19.1707 5.39906 18.7501C5.18435 18.1703 5.07084 17.558 5.0635 16.9398C5.01637 15.912 5.00663 15.6033 5.00663 12.9992C5.00663 10.3951 5.01637 10.088 5.0635 9.06019C5.07084 8.442 5.18435 7.82968 5.39906 7.24994C5.56131 6.82934 5.80982 6.44736 6.12859 6.12859C6.44736 5.80982 6.82934 5.56131 7.24994 5.39906C7.82968 5.18435 8.442 5.07084 9.06019 5.0635C10.088 5.01637 10.3968 5.00663 13 5.00663C15.6033 5.00663 15.912 5.01637 16.9398 5.0635C17.558 5.07084 18.1703 5.18435 18.7501 5.39906C19.1707 5.56131 19.5526 5.80982 19.8714 6.12859C20.1902 6.44736 20.4387 6.82934 20.6009 7.24994C20.8157 7.82968 20.9292 8.442 20.9365 9.06019C20.9836 10.088 20.9934 10.3968 20.9934 13C20.9934 15.6033 20.9836 15.912 20.9365 16.9398C20.9292 17.558 20.8157 18.1703 20.6009 18.7501C20.4387 19.1707 20.1902 19.5526 19.8714 19.8714C19.5526 20.1902 19.1707 20.4387 18.7501 20.6009C18.1703 20.8157 17.558 20.9292 16.9398 20.9365C15.912 20.9836 15.6033 20.9934 13 20.9934ZM13 22.75C15.6479 22.75 15.9802 22.7386 17.0202 22.6915C17.8289 22.6752 18.6289 22.5219 19.3862 22.2381C20.034 21.9876 20.6223 21.6046 21.1134 21.1134C21.6046 20.6223 21.9876 20.034 22.2381 19.3862C22.522 18.6286 22.6753 17.8283 22.6915 17.0194C22.7386 15.9794 22.75 15.6487 22.75 13C22.75 10.3512 22.7386 10.0197 22.6915 8.97975C22.6752 8.17113 22.5219 7.37113 22.2381 6.61375C21.9876 5.96596 21.6046 5.37766 21.1134 4.88655C20.6223 4.39544 20.034 4.01237 19.3862 3.76188C18.6286 3.47803 17.8283 3.32474 17.0194 3.3085C15.9794 3.26138 15.6479 3.25 13 3.25C10.3521 3.25 10.0197 3.26138 8.97975 3.3085C8.17086 3.32474 7.37057 3.47803 6.61294 3.76188C5.96515 4.01237 5.37685 4.39544 4.88574 4.88655C4.39463 5.37766 4.01155 5.96596 3.76106 6.61375C3.4775 7.37143 3.32448 8.17171 3.3085 8.98056C3.26138 10.0206 3.25 10.3512 3.25 13C3.25 15.6487 3.26138 15.9802 3.3085 17.0202C3.32483 17.8289 3.47812 18.6289 3.76188 19.3862C4.01237 20.034 4.39544 20.6223 4.88655 21.1134C5.37766 21.6046 5.96596 21.9876 6.61375 22.2381C7.37143 22.5217 8.17171 22.6747 8.98056 22.6907C10.0206 22.7394 10.3512 22.75 13 22.75Z" fill="#625B54"/>
</svg>
