<svg width="25" height="26" viewBox="0 0 25 26" fill="none" xmlns="http://www.w3.org/2000/svg">
<path d="M9.3125 20.2637C10.6321 20.2723 11.9403 20.0084 13.1611 19.4872C14.3819 18.9659 15.491 18.1978 16.4242 17.2273C17.3573 16.2569 18.0959 15.1034 18.5971 13.8337C19.0983 12.5641 19.3521 11.2036 19.3438 9.8312L19.3438 9.35182C20.0278 8.8306 20.6199 8.19009 21.0938 7.4587C20.4496 7.75168 19.7681 7.94599 19.0703 8.03557C19.8101 7.57714 20.3652 6.85555 20.6328 6.00432C19.9434 6.43449 19.1874 6.7369 18.3984 6.89807C17.8671 6.30931 17.1641 5.91906 16.398 5.7877C15.632 5.65634 14.8457 5.7912 14.1607 6.17142C13.4758 6.55163 12.9305 7.156 12.6091 7.89101C12.2877 8.62602 12.2082 9.4507 12.3828 10.2374C10.9813 10.1659 9.60993 9.78815 8.35809 9.1288C7.10625 8.46944 6.00198 7.54326 5.11719 6.41057C4.67103 7.2159 4.5358 8.16746 4.73887 9.07258C4.94195 9.97771 5.46815 10.7688 6.21094 11.2856C5.66298 11.2636 5.1277 11.1077 4.64844 10.8306L4.64844 10.8712C4.64357 11.7128 4.91619 12.5307 5.42086 13.1887C5.92553 13.8466 6.63178 14.3048 7.42187 14.4868C6.91222 14.6294 6.37835 14.6516 5.85937 14.5518C6.08811 15.2696 6.52475 15.8962 7.10941 16.3456C7.69407 16.7951 8.39812 17.0455 9.125 17.0624C7.8822 18.1029 6.33757 18.6756 4.74219 18.6874C4.46246 18.679 4.1834 18.6546 3.90625 18.6143C5.52106 19.6843 7.39781 20.2484 9.3125 20.2393" fill="#625B54"/>
</svg>
