<svg width="49" height="49" viewBox="0 0 49 49" fill="none" xmlns="http://www.w3.org/2000/svg">
<path d="M42.875 15.3125H35.2188V9.1875C35.2179 8.37552 34.895 7.59704 34.3209 7.02288C33.7467 6.44873 32.9682 6.12581 32.1562 6.125H16.8438C16.0318 6.12581 15.2533 6.44873 14.6791 7.02288C14.105 7.59704 13.7821 8.37552 13.7812 9.1875V15.3125H6.125C5.31302 15.3133 4.53454 15.6362 3.96038 16.2104C3.38623 16.7845 3.06331 17.563 3.0625 18.375V42.875C3.06331 43.687 3.38623 44.4655 3.96038 45.0396C4.53454 45.6138 5.31302 45.9367 6.125 45.9375H42.875C43.687 45.9367 44.4655 45.6138 45.0396 45.0396C45.6138 44.4655 45.9367 43.687 45.9375 42.875V18.375C45.9367 17.563 45.6138 16.7845 45.0396 16.2104C44.4655 15.6362 43.687 15.3133 42.875 15.3125ZM6.125 42.875V18.375H13.7812V21.4375H10.7188V24.5H13.7812V27.5625H10.7188V30.625H13.7812V33.6875H10.7188V36.75H13.7812V42.875H6.125ZM32.1562 42.875H16.8438V9.1875H32.1562V42.875ZM42.875 42.875H35.2188V36.75H38.2812V33.6875H35.2188V30.625H38.2812V27.5625H35.2188V24.5H38.2812V21.4375H35.2188V18.375H42.875V42.875Z" fill="#625B54"/>
<path d="M21.4375 12.25H27.5625V15.3125H21.4375V12.25Z" fill="#625B54"/>
<path d="M21.4375 18.375H27.5625V21.4375H21.4375V18.375Z" fill="#625B54"/>
<path d="M21.4375 24.5H27.5625V27.5625H21.4375V24.5Z" fill="#625B54"/>
</svg>
