<svg width="49" height="49" viewBox="0 0 49 49" fill="none" xmlns="http://www.w3.org/2000/svg">
<path d="M35.2188 41.6194L31.2528 37.6534L29.0938 39.8125L35.2188 45.9375L45.9375 35.2188L43.7784 33.0597L35.2188 41.6194Z" fill="#625B54"/>
<path d="M16.8438 13.7812C17.6894 13.7812 18.375 13.0957 18.375 12.25C18.375 11.4043 17.6894 10.7188 16.8438 10.7188C15.9981 10.7188 15.3125 11.4043 15.3125 12.25C15.3125 13.0957 15.9981 13.7812 16.8438 13.7812Z" fill="#625B54"/>
<path d="M16.8438 26.0312C17.6894 26.0312 18.375 25.3457 18.375 24.5C18.375 23.6543 17.6894 22.9688 16.8438 22.9688C15.9981 22.9688 15.3125 23.6543 15.3125 24.5C15.3125 25.3457 15.9981 26.0312 16.8438 26.0312Z" fill="#625B54"/>
<path d="M16.8438 38.2812C17.6894 38.2812 18.375 37.5957 18.375 36.75C18.375 35.9043 17.6894 35.2188 16.8438 35.2188C15.9981 35.2188 15.3125 35.9043 15.3125 36.75C15.3125 37.5957 15.9981 38.2812 16.8438 38.2812Z" fill="#625B54"/>
<path d="M36.75 4.59375H12.25C11.4378 4.59375 10.6588 4.91641 10.0845 5.49074C9.51016 6.06507 9.1875 6.84402 9.1875 7.65625V41.3438C9.1875 42.156 9.51016 42.9349 10.0845 43.5093C10.6588 44.0836 11.4378 44.4062 12.25 44.4062H24.5V41.3438H12.25V32.1562H39.8125V7.65625C39.8125 6.84402 39.4898 6.06507 38.9155 5.49074C38.3412 4.91641 37.5622 4.59375 36.75 4.59375ZM36.75 29.0938H12.25V19.9062H36.75V29.0938ZM36.75 16.8438H12.25V7.65625H36.75V16.8438Z" fill="#625B54"/>
</svg>
