<svg width="49" height="49" viewBox="0 0 49 49" fill="none" xmlns="http://www.w3.org/2000/svg">
<path d="M45.0417 33.176L35.3412 23.4756L45.0401 13.7766C45.3248 13.4923 45.5506 13.1547 45.7047 12.7832C45.8588 12.4116 45.9382 12.0133 45.9383 11.611C45.9385 11.2087 45.8594 10.8103 45.7055 10.4386C45.5517 10.0669 45.3261 9.72921 45.0417 9.44471L45.0401 9.44165L39.5583 3.95977C39.274 3.67516 38.9364 3.44935 38.5648 3.29524C38.1932 3.14112 37.7949 3.06173 37.3926 3.06158C36.9904 3.06144 36.592 3.14056 36.2203 3.29441C35.8486 3.44826 35.5109 3.67383 35.2264 3.95824L35.2248 3.95977L25.5259 13.6587L15.8254 3.95824C15.2503 3.38561 14.4718 3.06411 13.6602 3.06411C12.8487 3.06411 12.0702 3.38561 11.4951 3.95824L3.95824 11.4935C3.38402 12.0681 3.06145 12.8472 3.06145 13.6595C3.06145 14.4718 3.38402 15.2509 3.95824 15.8254L13.6572 25.5244L3.06246 36.1222V45.9375H12.8778L23.474 35.3412L33.1745 45.0447C33.7505 45.6168 34.5294 45.9379 35.3412 45.9379C36.153 45.9379 36.9319 45.6168 37.5079 45.0447L45.0417 37.5079C45.6159 36.9334 45.9385 36.1543 45.9385 35.342C45.9385 34.5297 45.6159 33.7506 45.0417 33.176ZM37.3824 6.11884L42.8796 11.616L33.1821 21.315L27.685 15.8178L37.3824 6.11884ZM12.25 42.875H6.12496V37.3762L15.8178 27.685L21.4466 33.3169L12.25 42.875ZM35.3412 42.8811L6.12496 13.6587L13.6618 6.12496L19.4621 11.9238L16.0138 15.3737L18.1805 17.5389L21.6273 14.0905L27.9514 20.4146L24.5 23.8599L26.6682 26.0251L30.1166 22.5767L36.4406 28.9008L32.9923 32.3476L35.1575 34.5143L38.6058 31.0675L42.878 35.3412L35.3412 42.8811Z" fill="#625B54"/>
</svg>
