<svg width="49" height="49" viewBox="0 0 49 49" fill="none" xmlns="http://www.w3.org/2000/svg">
<path d="M43.5595 24.6608L35.2188 20.4928V10.7188C35.2186 10.4345 35.1393 10.1559 34.9897 9.91407C34.8402 9.6723 34.6263 9.47693 34.372 9.34985L25.1845 4.7561C24.9719 4.64989 24.7376 4.5946 24.5 4.5946C24.2624 4.5946 24.0281 4.64989 23.8155 4.7561L14.628 9.34985C14.3737 9.47693 14.1598 9.6723 14.0103 9.91407C13.8607 10.1559 13.7814 10.4345 13.7812 10.7188V20.4912L5.44053 24.6608C5.18599 24.788 4.97192 24.9836 4.82235 25.2257C4.67278 25.4678 4.59362 25.7467 4.59375 26.0313V36.75C4.5939 37.0343 4.6732 37.313 4.82275 37.5547C4.97231 37.7965 5.18622 37.9919 5.44053 38.119L14.628 42.7127C14.8406 42.8188 15.0749 42.874 15.3125 42.874C15.5501 42.874 15.7844 42.8188 15.997 42.7127L24.5 38.4635L33.003 42.7158C33.2156 42.8219 33.4499 42.8771 33.6875 42.8771C33.9251 42.8771 34.1594 42.8219 34.372 42.7158L43.5595 38.122C43.8142 37.9947 44.0285 37.7989 44.1781 37.5565C44.3276 37.3141 44.4067 37.0348 44.4062 36.75V26.0313C44.4064 25.7467 44.3272 25.4678 44.1777 25.2257C44.0281 24.9836 43.814 24.788 43.5595 24.6608ZM32.1562 20.4928L26.0312 23.5553V16.2604L32.1562 13.1979V20.4928ZM24.5 7.83851L30.2636 10.7188L24.5 13.6006L18.7364 10.7188L24.5 7.83851ZM16.8438 13.1979L22.9688 16.2604V23.5553L16.8438 20.4928V13.1979ZM13.7812 38.8662L7.65625 35.8037V28.5088L13.7812 31.5713V38.8662ZM15.3125 28.9131L9.54887 26.0313L15.3125 23.1495L21.0761 26.0313L15.3125 28.9131ZM16.8438 31.5713L22.9688 28.5088V35.8037L16.8438 38.8662V31.5713ZM32.1562 38.8662L26.0312 35.8037V28.5088L32.1562 31.5713V38.8662ZM33.6875 28.9131L27.9239 26.0313L33.6875 23.1495L39.4511 26.0313L33.6875 28.9131ZM41.3438 35.8037L35.2188 38.8662V31.5713L41.3438 28.5088V35.8037Z" fill="#625B54"/>
</svg>
